<svg width="150" height="24" viewBox="0 0 150 24" fill="none" xmlns="http://www.w3.org/2000/svg">
<g clip-path="url(#clip0_2_2)">
<path d="M15.4344 19L10.1296 10.225L15.3887 1.4H11.5244L8.00305 7.4L4.52743 1.4H0.525909L5.78505 10.15L0.480177 19H4.39023L7.91158 12.975L11.4558 19H15.4344Z" fill="black"/>
<path d="M22.1897 5.775C19.1028 5.775 17.3421 7.625 17.022 9.85H20.1317C20.3147 9.175 20.9092 8.6 22.0525 8.6C23.1729 8.6 23.9961 9.225 23.9961 10.425V11.025H21.4122C18.3939 11.025 16.5647 12.55 16.5647 15.2C16.5647 17.8 18.3939 19.3 20.6805 19.3C22.2125 19.3 23.4473 18.65 24.179 17.6V19H27.2659V10.55C27.2659 7.4 25.2308 5.775 22.1897 5.775ZM21.5952 16.475C20.5662 16.475 19.9031 15.925 19.9031 15.025C19.9031 14.1 20.6348 13.55 21.6638 13.55H23.9961V14.125C23.9961 15.625 22.8756 16.475 21.5952 16.475Z" fill="black"/>
<path d="M36.5168 6.3C34.8704 6.3 33.5213 6.95 32.6524 8.275C32.8811 5.85 33.7729 4.65 36.0137 4.275L40.5183 3.55V0.375L35.6936 1.25C31.029 2.1 29.5884 5.5 29.5884 11.175C29.5884 16.275 31.8521 19.3 35.8537 19.3C39.4436 19.3 41.6616 16.3 41.6616 12.7C41.6616 8.825 39.6037 6.3 36.5168 6.3ZM35.6936 16.25C33.9558 16.25 32.9954 14.725 32.9954 12.675C32.9954 10.7 34.0015 9.275 35.7165 9.275C37.3857 9.275 38.3232 10.75 38.3232 12.7C38.3232 14.65 37.4085 16.25 35.6936 16.25Z" fill="black"/>
<path d="M50.566 5.775C48.8282 5.775 47.7078 6.6 47.1133 7.575V6.075H43.912V23.775H47.2505V17.75C47.845 18.65 48.9654 19.3 50.4745 19.3C53.3785 19.3 55.688 16.8 55.688 12.55C55.688 8.225 53.3785 5.775 50.566 5.775ZM49.7657 16.15C48.2108 16.15 47.1819 14.775 47.1819 12.6V12.5C47.1819 10.325 48.2108 8.925 49.7657 8.925C51.3206 8.925 52.3267 10.35 52.3267 12.55C52.3267 14.75 51.3206 16.15 49.7657 16.15Z" fill="black"/>
<path d="M75.49 19L67.7156 9.825L75.3528 1.4H72.7232L65.5662 9.25V1.4H63.5311V19H65.5662V10.6L72.7918 19H75.49Z" fill="black"/>
<path d="M81.6457 6.125C79.0162 6.125 77.4155 7.75 77.0497 9.7H78.9476C79.2677 8.775 80.0909 8.025 81.6 8.025C83.0863 8.025 84.2067 8.9 84.2067 10.65V11.5H81.1427C78.3302 11.5 76.6152 12.975 76.6152 15.4C76.6152 17.8 78.353 19.275 80.5939 19.275C82.0573 19.275 83.4293 18.675 84.2982 17.5V19H86.1503V10.65C86.1503 7.825 84.3439 6.125 81.6457 6.125ZM80.8454 17.4C79.5649 17.4 78.6046 16.7 78.6046 15.375C78.6046 14.025 79.6793 13.325 81.257 13.325H84.2067V14.25C84.2067 16.175 82.6747 17.4 80.8454 17.4Z" fill="black"/>
<path d="M95.1421 6.125C93.1527 6.125 91.9409 7.125 91.3695 8.2V6.4H89.4716V23.775H91.4381V17.45C91.9866 18.375 93.2213 19.275 95.0735 19.275C97.7259 19.275 100.333 17.15 100.333 12.7C100.333 8.275 97.7488 6.125 95.1421 6.125ZM94.8905 17.325C92.764 17.325 91.3695 15.55 91.3695 12.75V12.65C91.3695 9.85 92.764 8.075 94.8905 8.075C96.9485 8.075 98.3204 9.95 98.3204 12.7C98.3204 15.45 96.9485 17.325 94.8905 17.325Z" fill="black"/>
<path d="M107.62 10.475H105.037V6.4H103.07V19H107.598C110.067 19 111.668 17.15 111.668 14.7C111.668 12.25 110.067 10.475 107.62 10.475ZM107.369 17.1H105.037V12.375H107.369C108.878 12.375 109.701 13.35 109.701 14.7C109.701 16.05 108.878 17.1 107.369 17.1Z" fill="black"/>
<path d="M124.066 13.35V12.25C124.066 8.5 122.1 6.125 119.036 6.125C115.88 6.125 113.617 8.625 113.617 12.7C113.617 16.75 115.858 19.275 119.196 19.275C122.191 19.275 123.632 17.225 123.929 15.75H121.94C121.734 16.4 120.819 17.35 119.219 17.35C117.092 17.35 115.675 15.65 115.675 13.4V13.35H124.066ZM118.99 8.05C120.842 8.05 121.986 9.35 122.077 11.525H115.698C115.858 9.45 117.069 8.05 118.99 8.05Z" fill="black"/>
<path d="M132.478 6.125C130.489 6.125 129.277 7.125 128.705 8.2V6.4H126.808V23.775H128.774V17.45C129.323 18.375 130.558 19.275 132.41 19.275C135.062 19.275 137.669 17.15 137.669 12.7C137.669 8.275 135.085 6.125 132.478 6.125ZM132.227 17.325C130.1 17.325 128.705 15.55 128.705 12.75V12.65C128.705 9.85 130.1 8.075 132.227 8.075C134.285 8.075 135.657 9.95 135.657 12.7C135.657 15.45 134.285 17.325 132.227 17.325Z" fill="black"/>
<path d="M144.728 6.125C142.098 6.125 140.498 7.75 140.132 9.7H142.03C142.35 8.775 143.173 8.025 144.682 8.025C146.169 8.025 147.289 8.9 147.289 10.65V11.5H144.225C141.413 11.5 139.698 12.975 139.698 15.4C139.698 17.8 141.435 19.275 143.676 19.275C145.14 19.275 146.512 18.675 147.38 17.5V19H149.233V10.65C149.233 7.825 147.426 6.125 144.728 6.125ZM143.928 17.4C142.647 17.4 141.687 16.7 141.687 15.375C141.687 14.025 142.762 13.325 144.339 13.325H147.289V14.25C147.289 16.175 145.757 17.4 143.928 17.4Z" fill="black"/>
</g>
<defs>
<clipPath id="clip0_2_2">
<rect width="150" height="24" fill="white"/>
</clipPath>
</defs>
</svg>
