<svg width="24" height="24" viewBox="0 0 24 24" fill="none" xmlns="http://www.w3.org/2000/svg">
<g clip-path="url(#clip0_2_29)">
<mask id="mask0_2_29" style="mask-type:luminance" maskUnits="userSpaceOnUse" x="0" y="0" width="24" height="24">
<path d="M23.8812 0H0.118813V24H23.8812V0Z" fill="white"/>
</mask>
<g mask="url(#mask0_2_29)">
<path fill-rule="evenodd" clip-rule="evenodd" d="M1.78917 1.68707C0.118813 3.37414 0.118813 6.08942 0.118813 11.52V12.48C0.118813 17.9106 0.118813 20.6259 1.78917 22.3129C3.45954 24 6.14795 24 11.5248 24H12.4752C17.8521 24 20.5405 24 22.2108 22.3129C23.8812 20.6259 23.8812 17.9106 23.8812 12.48V11.52C23.8812 6.08942 23.8812 3.37414 22.2108 1.68707C20.5405 0 17.8521 0 12.4752 0H11.5248C6.14795 0 3.45954 0 1.78917 1.68707ZM4.12876 7.30006C4.25746 13.5401 7.34654 17.29 12.7624 17.29H13.0694V13.72C15.0595 13.92 16.5643 15.39 17.1683 17.29H19.9802C19.208 14.45 17.1782 12.88 15.9108 12.28C17.1782 11.54 18.9604 9.74004 19.3861 7.30006H16.8316C16.2771 9.28006 14.6337 11.08 13.0694 11.25V7.30006H10.5148V14.22C8.93069 13.82 6.93073 11.88 6.84162 7.30006H4.12876Z" fill="black"/>
</g>
</g>
<defs>
<clipPath id="clip0_2_29">
<rect width="24" height="24" fill="white"/>
</clipPath>
</defs>
</svg>
